HIERARCHY
ROOT Hips
{
  OFFSET 0 0 0
  CHANNELS 6 Xposition Yposition Zposition Zrotation Yrotation Xrotation
  JOINT LeftThigh
  {
    OFFSET 8.409438 0 -5.917753
    CHANNELS 3 Zrotation Yrotation Xrotation
    JOINT LeftLeg
    {
      OFFSET 0 0 -42.358652
      CHANNELS 3 Zrotation Yrotation Xrotation
      JOINT LeftFoot
      {
        OFFSET 0 0 -39.357303
        CHANNELS 3 Zrotation Yrotation Xrotation
      }
    }
  }
  JOINT RightThigh
  {
    OFFSET -8.409438 0 -5.917753
    CHANNELS 3 Zrotation Yrotation Xrotation
    JOINT RightLeg
    {
      OFFSET 0 0 -42.358652
      CHANNELS 3 Zrotation Yrotation Xrotation
      JOINT RightFoot
      {
        OFFSET 0 0 -39.357303
        CHANNELS 3 Zrotation Yrotation Xrotation
      }
    }
  }
  JOINT SpineLow
  {
    OFFSET 0 0 4.719101
    CHANNELS 3 Zrotation Yrotation Xrotation
    JOINT SpineMid
    {
      OFFSET 0 0 12.899191
      CHANNELS 3 Zrotation Yrotation Xrotation
      JOINT Chest
      {
        OFFSET 0 0 12.899191
        CHANNELS 3 Zrotation Yrotation Xrotation
        JOINT LeftShoulder
        {
          OFFSET 7.550562 1.41573 9.438202
          CHANNELS 3 Zrotation Yrotation Xrotation
          JOINT LeftArm
          {
            OFFSET 9.155056 0 4.247191
            CHANNELS 3 Zrotation Yrotation Xrotation
            JOINT LeftForearm
            {
              OFFSET 0 0 25.771955
              CHANNELS 3 Zrotation Yrotation Xrotation
              JOINT LeftHand
              {
                OFFSET 0 0 25.197169
                CHANNELS 3 Zrotation Yrotation Xrotation
              }
            }
          }
        }
        JOINT RightShoulder
        {
          OFFSET -7.550562 1.41573 9.438202
          CHANNELS 3 Zrotation Yrotation Xrotation
          JOINT RightArm
          {
            OFFSET -9.155056 0 4.247191
            CHANNELS 3 Zrotation Yrotation Xrotation
            JOINT RightForearm
            {
              OFFSET 0 0 -25.771955
              CHANNELS 3 Zrotation Yrotation Xrotation
              JOINT RightHand
              {
                OFFSET 0 0 -25.197169
                CHANNELS 3 Zrotation Yrotation Xrotation
              }
            }
          }
        }
        JOINT Neck
        {
          OFFSET 0 0 15.101124
          CHANNELS 3 Zrotation Yrotation Xrotation
          JOINT Head
          {
            OFFSET 0 0 11.325843
            CHANNELS 3 Zrotation Yrotation Xrotation
            End Site
            {
              OFFSET 0 0 14.157303
            }
          }
        }
      }
    }
  }
}
MOTION
Frames: 13
Frame Time: 0.0
0.0  101.685394  0.0  -1.331702  -24.449094  -99.776747  32.74753  -25.12058  -1.752345  -1.204259  12.567214  33.553247  4.445558  3.974835  0.920706  0.878285  5.371973  -12.792926  6.861388  8.79599  23.456878  11.543056  -0.291679  -2.921805  -3.574465  -0.614867  3.041378  -9.831014  -1.225025  8.384108  -9.831014  -1.225025  8.384108  9.06327  39.83668  6.733294  -123.107105  52.336654  -106.561414  -10.919989  -14.098502  130.570501  103.328874  23.442398  -23.685095  4.654092  6.206347  8.460988  78.471231  29.435238  34.200351  -55.156681  16.402917  -82.502986  79.347824  25.385681  18.754251  23.907726  3.435518  -5.067096  17.955328  2.382828  -3.940994  
0.0  101.685394  0.0  -1.03711  -24.305905  -99.812739  32.855848  -24.95744  -1.665732  -1.324227  12.797446  33.630998  4.430621  4.007369  0.844508  0.421672  5.643745  -13.143712  7.082616  8.850468  24.061528  11.606628  -0.167917  -3.055115  -3.599776  -0.590884  3.02942  -9.896804  -1.158332  8.348184  -9.896804  -1.158332  8.348183  9.478046  39.939889  6.824175  -122.528578  52.523693  -106.111154  -11.033949  -14.13304  130.738237  103.281833  23.166083  -23.049808  4.774362  6.293017  8.293666  79.270731  29.700303  34.894098  -55.325718  16.336783  -82.606457  79.406767  25.355904  18.735008  24.180805  3.567538  -5.19238  18.161565  2.474907  -4.041975  
0.0  101.685394  0.0  -0.722614  -23.9361  -99.77966  32.729185  -24.684435  -1.711632  -1.509197  13.098304  33.721292  4.502734  4.030955  0.802797  -0.172818  5.918905  -13.470266  7.218933  9.05606  24.528564  11.874512  -0.08102  -3.118108  -3.625951  -0.569319  3.012203  -9.96523  -1.098932  8.298261  -9.96523  -1.098932  8.298262  9.552547  39.956918  6.780866  -121.9903  52.682394  -105.671395  -11.076584  -14.147116  130.813654  103.18546  23.257802  -22.872534  4.914188  6.436703  8.162722  79.904398  29.989686  35.500697  -55.409235  16.345414  -82.720551  79.510988  25.251487  18.786516  24.396994  3.763102  -5.332929  18.325612  2.614504  -4.156667  
0.0  101.685394  0.0  -0.433587  -23.60623  -99.788827  32.872582  -24.546554  -1.700543  -1.624007  13.432395  33.900063  4.289471  3.934402  0.596485  -0.851972  6.088216  -13.697398  7.179171  9.431143  24.88418  12.398143  0.010432  -3.166442  -3.66481  -0.547596  2.986167  -10.06819  -1.038896  8.224363  -10.06819  -1.038896  8.224362  10.134178  40.085338  6.968496  -121.542477  52.974349  -105.195915  -11.135601  -14.166777  130.93201  103.289798  23.215152  -22.263569  4.979931  6.526025  8.048483  80.931241  30.179349  36.296312  -56.29016  16.253558  -82.813  79.487413  25.185634  18.18664  24.676837  3.896557  -5.399518  18.536586  2.709778  -4.213922  
0.0  101.685394  0.0  -0.072679  -22.939023  -99.729004  32.647004  -24.204775  -1.818985  -1.82682  13.75149  34.032417  4.274982  3.905321  0.539792  -1.597154  6.352388  -13.895812  7.309407  9.795852  25.233817  12.617208  0.069217  -3.205107  -3.709049  -0.517022  2.957322  -10.184741  -0.954631  8.141419  -10.184742  -0.954631  8.14142  10.196859  40.080133  6.915238  -121.061284  53.206882  -104.736111  -11.205721  -14.179066  130.947183  103.183764  23.386835  -22.079769  5.106653  6.675392  7.952632  81.631675  30.414208  36.907462  -56.445616  16.160775  -82.972058  79.748851  25.014077  18.134172  24.864224  4.112499  -5.516198  18.679032  2.865748  -4.311564  
0.0  101.685394  0.0  0.249542  -22.072814  -99.635015  32.418349  -23.902379  -1.976292  -1.99288  14.065273  34.207546  4.048923  3.795076  0.402021  -2.651209  6.644967  -14.198511  7.336046  10.140533  25.665361  12.972366  0.198499  -3.256531  -3.783449  -0.492526  2.913646  -10.384315  -0.885653  8.019159  -10.384315  -0.885653  8.01916  10.716725  40.194785  7.080477  -120.721608  53.530411  -104.263382  -11.235232  -14.101202  131.091898  103.174215  23.340346  -21.540809  5.062295  6.74885  7.824561  82.658982  30.567589  37.693267  -56.725728  15.975955  -83.135385  80.042454  24.859249  17.851244  25.08558  4.268792  -5.547817  18.846018  2.98002  -4.343292  
0.0  101.685394  0.0  0.618228  -20.808571  -99.443974  31.907194  -23.418417  -2.277334  -2.213613  14.329705  34.40641  3.855648  3.735028  0.343876  -3.823486  7.01116  -14.547857  7.601656  10.483806  26.181847  12.85735  0.246973  -3.334757  -3.881395  -0.459601  2.840876  -10.647023  -0.795882  7.816278  -10.647023  -0.795882  7.816278  10.816467  40.157603  7.162114  -120.370739  53.773516  -103.805352  -11.250338  -13.996481  131.083058  103.025689  23.500986  -21.322934  5.091225  6.869391  7.836094  83.38925  30.740904  38.325225  -56.911156  15.803904  -83.305436  80.333465  24.800508  17.339844  25.195001  4.445045  -5.578906  18.929161  3.110273  -4.374651  
0.0  101.685394  0.0  0.99029  -19.034029  -99.167807  31.097267  -22.812104  -2.696279  -2.568486  14.592674  34.628304  3.444146  3.615987  0.174756  -6.501488  7.416693  -15.401571  9.036174  10.520618  26.994036  12.477053  0.272219  -3.423696  -4.09451  -0.430171  2.726372  -11.224465  -0.70999  7.5007  -11.224465  -0.70999  7.5007  12.023066  40.321586  7.738956  -120.43738  54.125382  -103.391213  -11.174409  -13.806881  131.272461  102.92559  23.489067  -20.866354  4.504528  6.625025  7.579868  85.289079  30.611509  39.663384  -57.190815  15.671032  -83.482514  80.612423  24.834014  16.599599  25.477575  4.591403  -5.491557  19.140981  3.22148  -4.317319  
0.0  101.685394  0.0  1.425266  -16.730717  -98.879711  29.901986  -22.04909  -3.202753  -3.020249  14.889069  34.925178  3.282067  3.531231  0.133301  -8.533282  8.142341  -15.806858  9.284554  10.733847  27.40697  12.106597  0.328934  -3.462487  -4.291333  -0.378633  2.627137  -11.755405  -0.565064  7.222265  -11.755405  -0.565064  7.222265  11.902144  40.15671  7.707248  -120.458296  54.415678  -103.110114  -11.139112  -13.636898  131.208328  102.74201  23.665083  -20.690732  4.304003  6.660249  7.517613  85.916347  30.63531  40.316786  -57.432385  15.586587  -83.692129  81.001073  24.923949  15.789299  25.401021  4.684651  -5.549231  19.084493  3.289827  -4.363826  
0.0  101.685394  0.0  1.893174  -14.056279  -98.585166  28.469693  -21.178201  -3.815973  -2.46444  14.783649  36.086395  2.234165  3.228063  -0.328301  -10.714678  8.903736  -16.085591  9.33296  11.019423  27.658601  11.462055  0.230319  -3.476101  -4.513079  -0.32089  2.506447  -12.354209  -0.406305  6.883553  -12.354209  -0.406305  6.883553  11.798494  40.00148  7.777463  -120.799257  54.693224  -103.079162  -11.056074  -13.485528  131.234189  102.544101  23.797511  -20.494784  3.733126  6.568584  7.356224  86.801474  30.450837  41.206766  -57.712719  15.566615  -83.907217  81.574296  25.060213  14.967608  25.238241  4.715306  -5.564569  18.962733  3.313635  -4.375221  
0.0  101.685394  0.0  2.322021  -10.913006  -98.215739  26.786338  -20.299772  -4.610234  -2.906899  15.030266  36.525726  1.971808  3.132614  -0.320299  -12.875964  9.640557  -16.13087  8.964928  11.511018  27.680785  11.151685  0.404721  -3.445189  -4.759354  -0.25988  2.372476  -13.020361  -0.241122  6.507128  -13.020361  -0.241122  6.507127  11.521866  39.747636  7.855031  -121.4226  55.088993  -103.003179  -11.066206  -13.348366  131.033011  102.318292  23.83641  -20.212795  3.311432  6.56449  7.249218  87.146837  30.15814  41.888262  -58.012434  15.67088  -84.144053  82.311331  25.177284  14.192702  24.899326  4.630532  -5.600911  18.708574  3.251357  -4.396247  
0.0  101.685394  0.0  2.571849  -7.276204  -97.653681  24.958607  -19.559441  -5.71011  -3.554271  15.368583  36.858276  1.885651  3.112291  -0.164473  -15.081249  10.240195  -15.985807  8.179769  12.089263  27.46418  10.924039  0.652569  -3.378297  -5.038248  -0.229816  2.225919  -13.779303  -0.162427  6.101762  -13.779303  -0.162427  6.101762  11.207734  39.452262  7.852254  -122.643048  55.505257  -103.164971  -11.045864  -13.331423  130.720663  102.133663  23.828578  -19.782327  1.366537  6.102478  6.23415  89.023287  28.993771  43.273373  -58.404568  15.914991  -84.393798  83.081118  25.309788  13.36614  24.376513  4.437183  -5.65262  18.316095  3.108527  -4.423144  
0.0  101.685394  0.0  2.64665  -3.234351  -96.911939  23.075758  -18.994057  -7.077805  -4.408001  15.781913  37.019503  1.716201  3.082444  -8.77E-4  -17.115408  10.813498  -15.699196  7.090104  12.529431  27.132322  10.234072  0.905282  -3.304891  -5.351996  -0.2381  2.06269  -14.637249  -0.191967  5.658999  -14.63725  -0.191966  5.658998  11.03738  39.20839  7.841969  -124.529351  55.953242  -103.393245  -10.94488  -13.443332  130.121892  101.977311  23.834934  -19.329138  0.891655  6.161994  5.697752  88.940257  27.914592  43.829789  -58.885525  16.234508  -84.668115  83.867716  25.535545  12.344682  23.733512  4.157128  -5.70061  17.832896  2.901873  -4.443353  
